<?xml version="1.0" standalone="no"?>
<!DOCTYPE svg PUBLIC "-//W3C//DTD SVG 1.1//EN" "http://www.w3.org/Graphics/SVG/1.1/DTD/svg11.dtd">
<svg xmlns="http://www.w3.org/2000/svg" width="500" height="500" viewBox="0 0 500 500"><path fill-rule="evenodd" d="M296.5 87.657c-1.1.234-5.6 1.112-10 1.951-10.345 1.973-38.718 11.281-53.847 17.665C198.75 121.579 158.165 145.712 129 168.91c-5.225 4.156-16.312 14.314-24.637 22.573-23.22 23.036-28.775 34.578-28.646 59.517.075 14.447 2.444 23.675 8.987 35 4.526 7.835 29.995 33.754 44.296 45.08 39.698 31.439 86.138 56.917 131.084 71.915 34.428 11.488 51.861 12.665 70.804 4.779 9.285-3.865 20.52-11.323 25.978-17.245 10.578-11.475 15.914-23.303 21.596-47.869 7.547-32.624 9.498-51.665 9.498-92.66 0-38.108-1.684-56.901-7.573-84.5-9.063-42.476-19.175-58.47-44.887-70.995-12.509-6.094-28.957-8.982-39-6.848m-7 75.886c-34.461 7.71-100.982 45.583-128 72.876-9.827 9.927-11.38 12.568-9.479 16.121 6.292 11.756 38.142 36.604 70.519 55.015 30.289 17.224 63.599 30.355 77.19 30.428 2.733.014 3.522-.559 5.137-3.733 5.4-10.616 9.354-32.597 11.202-62.282 2.432-39.058-2.369-86.838-10.514-104.628-2.349-5.131-2.593-5.336-6.25-5.24-2.093.056-6.505.705-9.805 1.443"/></svg>